<?xml version="1.0" encoding="utf-8" standalone="no"?>
<!DOCTYPE svg PUBLIC "-//W3C//DTD SVG 1.1//EN"
  "http://www.w3.org/Graphics/SVG/1.1/DTD/svg11.dtd">
<!-- Created with matplotlib (https://matplotlib.org/) -->
<svg height="267.599687pt" version="1.1" viewBox="0 0 376.193437 267.599687" width="376.193437pt" xmlns="http://www.w3.org/2000/svg" xmlns:xlink="http://www.w3.org/1999/xlink">
 <defs>
  <style type="text/css">
*{stroke-linecap:butt;stroke-linejoin:round;white-space:pre;}
  </style>
 </defs>
 <g id="figure_1">
  <g id="patch_1">
   <path d="M 0 267.599687 
L 376.193437 267.599687 
L 376.193437 0 
L 0 0 
z
" style="fill:none;"/>
  </g>
  <g id="axes_1">
   <g id="patch_2">
    <path d="M 34.193438 224.64 
L 368.993438 224.64 
L 368.993438 7.2 
L 34.193438 7.2 
z
" style="fill:#eaeaf2;"/>
   </g>
   <g id="matplotlib.axis_1">
    <g id="xtick_1">
     <g id="line2d_1">
      <path clip-path="url(#pc502ff8505)" d="M 42.902968 224.64 
L 42.902968 7.2 
" style="fill:none;stroke:#ffffff;stroke-linecap:round;"/>
     </g>
     <g id="text_1">
      <!-- 1.2 -->
      <defs>
       <path d="M 12.40625 8.296875 
L 28.515625 8.296875 
L 28.515625 63.921875 
L 10.984375 60.40625 
L 10.984375 69.390625 
L 28.421875 72.90625 
L 38.28125 72.90625 
L 38.28125 8.296875 
L 54.390625 8.296875 
L 54.390625 0 
L 12.40625 0 
z
" id="DejaVuSans-49"/>
       <path d="M 10.6875 12.40625 
L 21 12.40625 
L 21 0 
L 10.6875 0 
z
" id="DejaVuSans-46"/>
       <path d="M 19.1875 8.296875 
L 53.609375 8.296875 
L 53.609375 0 
L 7.328125 0 
L 7.328125 8.296875 
Q 12.9375 14.109375 22.625 23.890625 
Q 32.328125 33.6875 34.8125 36.53125 
Q 39.546875 41.84375 41.421875 45.53125 
Q 43.3125 49.21875 43.3125 52.78125 
Q 43.3125 58.59375 39.234375 62.25 
Q 35.15625 65.921875 28.609375 65.921875 
Q 23.96875 65.921875 18.8125 64.3125 
Q 13.671875 62.703125 7.8125 59.421875 
L 7.8125 69.390625 
Q 13.765625 71.78125 18.9375 73 
Q 24.125 74.21875 28.421875 74.21875 
Q 39.75 74.21875 46.484375 68.546875 
Q 53.21875 62.890625 53.21875 53.421875 
Q 53.21875 48.921875 51.53125 44.890625 
Q 49.859375 40.875 45.40625 35.40625 
Q 44.1875 33.984375 37.640625 27.21875 
Q 31.109375 20.453125 19.1875 8.296875 
z
" id="DejaVuSans-50"/>
      </defs>
      <g style="fill:#262626;" transform="translate(34.156249 242.498281)scale(0.11 -0.11)">
       <use xlink:href="#DejaVuSans-49"/>
       <use x="63.623047" xlink:href="#DejaVuSans-46"/>
       <use x="95.410156" xlink:href="#DejaVuSans-50"/>
      </g>
     </g>
    </g>
    <g id="xtick_2">
     <g id="line2d_2">
      <path clip-path="url(#pc502ff8505)" d="M 103.937764 224.64 
L 103.937764 7.2 
" style="fill:none;stroke:#ffffff;stroke-linecap:round;"/>
     </g>
     <g id="text_2">
      <!-- 1.4 -->
      <defs>
       <path d="M 37.796875 64.3125 
L 12.890625 25.390625 
L 37.796875 25.390625 
z
M 35.203125 72.90625 
L 47.609375 72.90625 
L 47.609375 25.390625 
L 58.015625 25.390625 
L 58.015625 17.1875 
L 47.609375 17.1875 
L 47.609375 0 
L 37.796875 0 
L 37.796875 17.1875 
L 4.890625 17.1875 
L 4.890625 26.703125 
z
" id="DejaVuSans-52"/>
      </defs>
      <g style="fill:#262626;" transform="translate(95.191045 242.498281)scale(0.11 -0.11)">
       <use xlink:href="#DejaVuSans-49"/>
       <use x="63.623047" xlink:href="#DejaVuSans-46"/>
       <use x="95.410156" xlink:href="#DejaVuSans-52"/>
      </g>
     </g>
    </g>
    <g id="xtick_3">
     <g id="line2d_3">
      <path clip-path="url(#pc502ff8505)" d="M 164.97256 224.64 
L 164.97256 7.2 
" style="fill:none;stroke:#ffffff;stroke-linecap:round;"/>
     </g>
     <g id="text_3">
      <!-- 1.6 -->
      <defs>
       <path d="M 33.015625 40.375 
Q 26.375 40.375 22.484375 35.828125 
Q 18.609375 31.296875 18.609375 23.390625 
Q 18.609375 15.53125 22.484375 10.953125 
Q 26.375 6.390625 33.015625 6.390625 
Q 39.65625 6.390625 43.53125 10.953125 
Q 47.40625 15.53125 47.40625 23.390625 
Q 47.40625 31.296875 43.53125 35.828125 
Q 39.65625 40.375 33.015625 40.375 
z
M 52.59375 71.296875 
L 52.59375 62.3125 
Q 48.875 64.0625 45.09375 64.984375 
Q 41.3125 65.921875 37.59375 65.921875 
Q 27.828125 65.921875 22.671875 59.328125 
Q 17.53125 52.734375 16.796875 39.40625 
Q 19.671875 43.65625 24.015625 45.921875 
Q 28.375 48.1875 33.59375 48.1875 
Q 44.578125 48.1875 50.953125 41.515625 
Q 57.328125 34.859375 57.328125 23.390625 
Q 57.328125 12.15625 50.6875 5.359375 
Q 44.046875 -1.421875 33.015625 -1.421875 
Q 20.359375 -1.421875 13.671875 8.265625 
Q 6.984375 17.96875 6.984375 36.375 
Q 6.984375 53.65625 15.1875 63.9375 
Q 23.390625 74.21875 37.203125 74.21875 
Q 40.921875 74.21875 44.703125 73.484375 
Q 48.484375 72.75 52.59375 71.296875 
z
" id="DejaVuSans-54"/>
      </defs>
      <g style="fill:#262626;" transform="translate(156.225841 242.498281)scale(0.11 -0.11)">
       <use xlink:href="#DejaVuSans-49"/>
       <use x="63.623047" xlink:href="#DejaVuSans-46"/>
       <use x="95.410156" xlink:href="#DejaVuSans-54"/>
      </g>
     </g>
    </g>
    <g id="xtick_4">
     <g id="line2d_4">
      <path clip-path="url(#pc502ff8505)" d="M 226.007356 224.64 
L 226.007356 7.2 
" style="fill:none;stroke:#ffffff;stroke-linecap:round;"/>
     </g>
     <g id="text_4">
      <!-- 1.8 -->
      <defs>
       <path d="M 31.78125 34.625 
Q 24.75 34.625 20.71875 30.859375 
Q 16.703125 27.09375 16.703125 20.515625 
Q 16.703125 13.921875 20.71875 10.15625 
Q 24.75 6.390625 31.78125 6.390625 
Q 38.8125 6.390625 42.859375 10.171875 
Q 46.921875 13.96875 46.921875 20.515625 
Q 46.921875 27.09375 42.890625 30.859375 
Q 38.875 34.625 31.78125 34.625 
z
M 21.921875 38.8125 
Q 15.578125 40.375 12.03125 44.71875 
Q 8.5 49.078125 8.5 55.328125 
Q 8.5 64.0625 14.71875 69.140625 
Q 20.953125 74.21875 31.78125 74.21875 
Q 42.671875 74.21875 48.875 69.140625 
Q 55.078125 64.0625 55.078125 55.328125 
Q 55.078125 49.078125 51.53125 44.71875 
Q 48 40.375 41.703125 38.8125 
Q 48.828125 37.15625 52.796875 32.3125 
Q 56.78125 27.484375 56.78125 20.515625 
Q 56.78125 9.90625 50.3125 4.234375 
Q 43.84375 -1.421875 31.78125 -1.421875 
Q 19.734375 -1.421875 13.25 4.234375 
Q 6.78125 9.90625 6.78125 20.515625 
Q 6.78125 27.484375 10.78125 32.3125 
Q 14.796875 37.15625 21.921875 38.8125 
z
M 18.3125 54.390625 
Q 18.3125 48.734375 21.84375 45.5625 
Q 25.390625 42.390625 31.78125 42.390625 
Q 38.140625 42.390625 41.71875 45.5625 
Q 45.3125 48.734375 45.3125 54.390625 
Q 45.3125 60.0625 41.71875 63.234375 
Q 38.140625 66.40625 31.78125 66.40625 
Q 25.390625 66.40625 21.84375 63.234375 
Q 18.3125 60.0625 18.3125 54.390625 
z
" id="DejaVuSans-56"/>
      </defs>
      <g style="fill:#262626;" transform="translate(217.260637 242.498281)scale(0.11 -0.11)">
       <use xlink:href="#DejaVuSans-49"/>
       <use x="63.623047" xlink:href="#DejaVuSans-46"/>
       <use x="95.410156" xlink:href="#DejaVuSans-56"/>
      </g>
     </g>
    </g>
    <g id="xtick_5">
     <g id="line2d_5">
      <path clip-path="url(#pc502ff8505)" d="M 287.042152 224.64 
L 287.042152 7.2 
" style="fill:none;stroke:#ffffff;stroke-linecap:round;"/>
     </g>
     <g id="text_5">
      <!-- 2.0 -->
      <defs>
       <path d="M 31.78125 66.40625 
Q 24.171875 66.40625 20.328125 58.90625 
Q 16.5 51.421875 16.5 36.375 
Q 16.5 21.390625 20.328125 13.890625 
Q 24.171875 6.390625 31.78125 6.390625 
Q 39.453125 6.390625 43.28125 13.890625 
Q 47.125 21.390625 47.125 36.375 
Q 47.125 51.421875 43.28125 58.90625 
Q 39.453125 66.40625 31.78125 66.40625 
z
M 31.78125 74.21875 
Q 44.046875 74.21875 50.515625 64.515625 
Q 56.984375 54.828125 56.984375 36.375 
Q 56.984375 17.96875 50.515625 8.265625 
Q 44.046875 -1.421875 31.78125 -1.421875 
Q 19.53125 -1.421875 13.0625 8.265625 
Q 6.59375 17.96875 6.59375 36.375 
Q 6.59375 54.828125 13.0625 64.515625 
Q 19.53125 74.21875 31.78125 74.21875 
z
" id="DejaVuSans-48"/>
      </defs>
      <g style="fill:#262626;" transform="translate(278.295433 242.498281)scale(0.11 -0.11)">
       <use xlink:href="#DejaVuSans-50"/>
       <use x="63.623047" xlink:href="#DejaVuSans-46"/>
       <use x="95.410156" xlink:href="#DejaVuSans-48"/>
      </g>
     </g>
    </g>
    <g id="xtick_6">
     <g id="line2d_6">
      <path clip-path="url(#pc502ff8505)" d="M 348.076948 224.64 
L 348.076948 7.2 
" style="fill:none;stroke:#ffffff;stroke-linecap:round;"/>
     </g>
     <g id="text_6">
      <!-- 2.2 -->
      <g style="fill:#262626;" transform="translate(339.330229 242.498281)scale(0.11 -0.11)">
       <use xlink:href="#DejaVuSans-50"/>
       <use x="63.623047" xlink:href="#DejaVuSans-46"/>
       <use x="95.410156" xlink:href="#DejaVuSans-50"/>
      </g>
     </g>
    </g>
    <g id="text_7">
     <!-- height -->
     <defs>
      <path d="M 54.890625 33.015625 
L 54.890625 0 
L 45.90625 0 
L 45.90625 32.71875 
Q 45.90625 40.484375 42.875 44.328125 
Q 39.84375 48.1875 33.796875 48.1875 
Q 26.515625 48.1875 22.3125 43.546875 
Q 18.109375 38.921875 18.109375 30.90625 
L 18.109375 0 
L 9.078125 0 
L 9.078125 75.984375 
L 18.109375 75.984375 
L 18.109375 46.1875 
Q 21.34375 51.125 25.703125 53.5625 
Q 30.078125 56 35.796875 56 
Q 45.21875 56 50.046875 50.171875 
Q 54.890625 44.34375 54.890625 33.015625 
z
" id="DejaVuSans-104"/>
      <path d="M 56.203125 29.59375 
L 56.203125 25.203125 
L 14.890625 25.203125 
Q 15.484375 15.921875 20.484375 11.0625 
Q 25.484375 6.203125 34.421875 6.203125 
Q 39.59375 6.203125 44.453125 7.46875 
Q 49.3125 8.734375 54.109375 11.28125 
L 54.109375 2.78125 
Q 49.265625 0.734375 44.1875 -0.34375 
Q 39.109375 -1.421875 33.890625 -1.421875 
Q 20.796875 -1.421875 13.15625 6.1875 
Q 5.515625 13.8125 5.515625 26.8125 
Q 5.515625 40.234375 12.765625 48.109375 
Q 20.015625 56 32.328125 56 
Q 43.359375 56 49.78125 48.890625 
Q 56.203125 41.796875 56.203125 29.59375 
z
M 47.21875 32.234375 
Q 47.125 39.59375 43.09375 43.984375 
Q 39.0625 48.390625 32.421875 48.390625 
Q 24.90625 48.390625 20.390625 44.140625 
Q 15.875 39.890625 15.1875 32.171875 
z
" id="DejaVuSans-101"/>
      <path d="M 9.421875 54.6875 
L 18.40625 54.6875 
L 18.40625 0 
L 9.421875 0 
z
M 9.421875 75.984375 
L 18.40625 75.984375 
L 18.40625 64.59375 
L 9.421875 64.59375 
z
" id="DejaVuSans-105"/>
      <path d="M 45.40625 27.984375 
Q 45.40625 37.75 41.375 43.109375 
Q 37.359375 48.484375 30.078125 48.484375 
Q 22.859375 48.484375 18.828125 43.109375 
Q 14.796875 37.75 14.796875 27.984375 
Q 14.796875 18.265625 18.828125 12.890625 
Q 22.859375 7.515625 30.078125 7.515625 
Q 37.359375 7.515625 41.375 12.890625 
Q 45.40625 18.265625 45.40625 27.984375 
z
M 54.390625 6.78125 
Q 54.390625 -7.171875 48.1875 -13.984375 
Q 42 -20.796875 29.203125 -20.796875 
Q 24.46875 -20.796875 20.265625 -20.09375 
Q 16.0625 -19.390625 12.109375 -17.921875 
L 12.109375 -9.1875 
Q 16.0625 -11.328125 19.921875 -12.34375 
Q 23.78125 -13.375 27.78125 -13.375 
Q 36.625 -13.375 41.015625 -8.765625 
Q 45.40625 -4.15625 45.40625 5.171875 
L 45.40625 9.625 
Q 42.625 4.78125 38.28125 2.390625 
Q 33.9375 0 27.875 0 
Q 17.828125 0 11.671875 7.65625 
Q 5.515625 15.328125 5.515625 27.984375 
Q 5.515625 40.671875 11.671875 48.328125 
Q 17.828125 56 27.875 56 
Q 33.9375 56 38.28125 53.609375 
Q 42.625 51.21875 45.40625 46.390625 
L 45.40625 54.6875 
L 54.390625 54.6875 
z
" id="DejaVuSans-103"/>
      <path d="M 18.3125 70.21875 
L 18.3125 54.6875 
L 36.8125 54.6875 
L 36.8125 47.703125 
L 18.3125 47.703125 
L 18.3125 18.015625 
Q 18.3125 11.328125 20.140625 9.421875 
Q 21.96875 7.515625 27.59375 7.515625 
L 36.8125 7.515625 
L 36.8125 0 
L 27.59375 0 
Q 17.1875 0 13.234375 3.875 
Q 9.28125 7.765625 9.28125 18.015625 
L 9.28125 47.703125 
L 2.6875 47.703125 
L 2.6875 54.6875 
L 9.28125 54.6875 
L 9.28125 70.21875 
z
" id="DejaVuSans-116"/>
     </defs>
     <g style="fill:#262626;" transform="translate(182.468437 257.904062)scale(0.12 -0.12)">
      <use xlink:href="#DejaVuSans-104"/>
      <use x="63.378906" xlink:href="#DejaVuSans-101"/>
      <use x="124.902344" xlink:href="#DejaVuSans-105"/>
      <use x="152.685547" xlink:href="#DejaVuSans-103"/>
      <use x="216.162109" xlink:href="#DejaVuSans-104"/>
      <use x="279.541016" xlink:href="#DejaVuSans-116"/>
     </g>
    </g>
   </g>
   <g id="matplotlib.axis_2">
    <g id="ytick_1">
     <g id="line2d_7">
      <path clip-path="url(#pc502ff8505)" d="M 34.193438 224.64 
L 368.993438 224.64 
" style="fill:none;stroke:#ffffff;stroke-linecap:round;"/>
     </g>
     <g id="text_8">
      <!-- 0.0 -->
      <g style="fill:#262626;" transform="translate(7.2 228.819141)scale(0.11 -0.11)">
       <use xlink:href="#DejaVuSans-48"/>
       <use x="63.623047" xlink:href="#DejaVuSans-46"/>
       <use x="95.410156" xlink:href="#DejaVuSans-48"/>
      </g>
     </g>
    </g>
    <g id="ytick_2">
     <g id="line2d_8">
      <path clip-path="url(#pc502ff8505)" d="M 34.193438 198.664735 
L 368.993438 198.664735 
" style="fill:none;stroke:#ffffff;stroke-linecap:round;"/>
     </g>
     <g id="text_9">
      <!-- 0.5 -->
      <defs>
       <path d="M 10.796875 72.90625 
L 49.515625 72.90625 
L 49.515625 64.59375 
L 19.828125 64.59375 
L 19.828125 46.734375 
Q 21.96875 47.46875 24.109375 47.828125 
Q 26.265625 48.1875 28.421875 48.1875 
Q 40.625 48.1875 47.75 41.5 
Q 54.890625 34.8125 54.890625 23.390625 
Q 54.890625 11.625 47.5625 5.09375 
Q 40.234375 -1.421875 26.90625 -1.421875 
Q 22.3125 -1.421875 17.546875 -0.640625 
Q 12.796875 0.140625 7.71875 1.703125 
L 7.71875 11.625 
Q 12.109375 9.234375 16.796875 8.0625 
Q 21.484375 6.890625 26.703125 6.890625 
Q 35.15625 6.890625 40.078125 11.328125 
Q 45.015625 15.765625 45.015625 23.390625 
Q 45.015625 31 40.078125 35.4375 
Q 35.15625 39.890625 26.703125 39.890625 
Q 22.75 39.890625 18.8125 39.015625 
Q 14.890625 38.140625 10.796875 36.28125 
z
" id="DejaVuSans-53"/>
      </defs>
      <g style="fill:#262626;" transform="translate(7.2 202.843876)scale(0.11 -0.11)">
       <use xlink:href="#DejaVuSans-48"/>
       <use x="63.623047" xlink:href="#DejaVuSans-46"/>
       <use x="95.410156" xlink:href="#DejaVuSans-53"/>
      </g>
     </g>
    </g>
    <g id="ytick_3">
     <g id="line2d_9">
      <path clip-path="url(#pc502ff8505)" d="M 34.193438 172.68947 
L 368.993438 172.68947 
" style="fill:none;stroke:#ffffff;stroke-linecap:round;"/>
     </g>
     <g id="text_10">
      <!-- 1.0 -->
      <g style="fill:#262626;" transform="translate(7.2 176.868611)scale(0.11 -0.11)">
       <use xlink:href="#DejaVuSans-49"/>
       <use x="63.623047" xlink:href="#DejaVuSans-46"/>
       <use x="95.410156" xlink:href="#DejaVuSans-48"/>
      </g>
     </g>
    </g>
    <g id="ytick_4">
     <g id="line2d_10">
      <path clip-path="url(#pc502ff8505)" d="M 34.193438 146.714205 
L 368.993438 146.714205 
" style="fill:none;stroke:#ffffff;stroke-linecap:round;"/>
     </g>
     <g id="text_11">
      <!-- 1.5 -->
      <g style="fill:#262626;" transform="translate(7.2 150.893346)scale(0.11 -0.11)">
       <use xlink:href="#DejaVuSans-49"/>
       <use x="63.623047" xlink:href="#DejaVuSans-46"/>
       <use x="95.410156" xlink:href="#DejaVuSans-53"/>
      </g>
     </g>
    </g>
    <g id="ytick_5">
     <g id="line2d_11">
      <path clip-path="url(#pc502ff8505)" d="M 34.193438 120.738941 
L 368.993438 120.738941 
" style="fill:none;stroke:#ffffff;stroke-linecap:round;"/>
     </g>
     <g id="text_12">
      <!-- 2.0 -->
      <g style="fill:#262626;" transform="translate(7.2 124.918081)scale(0.11 -0.11)">
       <use xlink:href="#DejaVuSans-50"/>
       <use x="63.623047" xlink:href="#DejaVuSans-46"/>
       <use x="95.410156" xlink:href="#DejaVuSans-48"/>
      </g>
     </g>
    </g>
    <g id="ytick_6">
     <g id="line2d_12">
      <path clip-path="url(#pc502ff8505)" d="M 34.193438 94.763676 
L 368.993438 94.763676 
" style="fill:none;stroke:#ffffff;stroke-linecap:round;"/>
     </g>
     <g id="text_13">
      <!-- 2.5 -->
      <g style="fill:#262626;" transform="translate(7.2 98.942816)scale(0.11 -0.11)">
       <use xlink:href="#DejaVuSans-50"/>
       <use x="63.623047" xlink:href="#DejaVuSans-46"/>
       <use x="95.410156" xlink:href="#DejaVuSans-53"/>
      </g>
     </g>
    </g>
    <g id="ytick_7">
     <g id="line2d_13">
      <path clip-path="url(#pc502ff8505)" d="M 34.193438 68.788411 
L 368.993438 68.788411 
" style="fill:none;stroke:#ffffff;stroke-linecap:round;"/>
     </g>
     <g id="text_14">
      <!-- 3.0 -->
      <defs>
       <path d="M 40.578125 39.3125 
Q 47.65625 37.796875 51.625 33 
Q 55.609375 28.21875 55.609375 21.1875 
Q 55.609375 10.40625 48.1875 4.484375 
Q 40.765625 -1.421875 27.09375 -1.421875 
Q 22.515625 -1.421875 17.65625 -0.515625 
Q 12.796875 0.390625 7.625 2.203125 
L 7.625 11.71875 
Q 11.71875 9.328125 16.59375 8.109375 
Q 21.484375 6.890625 26.8125 6.890625 
Q 36.078125 6.890625 40.9375 10.546875 
Q 45.796875 14.203125 45.796875 21.1875 
Q 45.796875 27.640625 41.28125 31.265625 
Q 36.765625 34.90625 28.71875 34.90625 
L 20.21875 34.90625 
L 20.21875 43.015625 
L 29.109375 43.015625 
Q 36.375 43.015625 40.234375 45.921875 
Q 44.09375 48.828125 44.09375 54.296875 
Q 44.09375 59.90625 40.109375 62.90625 
Q 36.140625 65.921875 28.71875 65.921875 
Q 24.65625 65.921875 20.015625 65.03125 
Q 15.375 64.15625 9.8125 62.3125 
L 9.8125 71.09375 
Q 15.4375 72.65625 20.34375 73.4375 
Q 25.25 74.21875 29.59375 74.21875 
Q 40.828125 74.21875 47.359375 69.109375 
Q 53.90625 64.015625 53.90625 55.328125 
Q 53.90625 49.265625 50.4375 45.09375 
Q 46.96875 40.921875 40.578125 39.3125 
z
" id="DejaVuSans-51"/>
      </defs>
      <g style="fill:#262626;" transform="translate(7.2 72.967551)scale(0.11 -0.11)">
       <use xlink:href="#DejaVuSans-51"/>
       <use x="63.623047" xlink:href="#DejaVuSans-46"/>
       <use x="95.410156" xlink:href="#DejaVuSans-48"/>
      </g>
     </g>
    </g>
    <g id="ytick_8">
     <g id="line2d_14">
      <path clip-path="url(#pc502ff8505)" d="M 34.193438 42.813146 
L 368.993438 42.813146 
" style="fill:none;stroke:#ffffff;stroke-linecap:round;"/>
     </g>
     <g id="text_15">
      <!-- 3.5 -->
      <g style="fill:#262626;" transform="translate(7.2 46.992287)scale(0.11 -0.11)">
       <use xlink:href="#DejaVuSans-51"/>
       <use x="63.623047" xlink:href="#DejaVuSans-46"/>
       <use x="95.410156" xlink:href="#DejaVuSans-53"/>
      </g>
     </g>
    </g>
    <g id="ytick_9">
     <g id="line2d_15">
      <path clip-path="url(#pc502ff8505)" d="M 34.193438 16.837881 
L 368.993438 16.837881 
" style="fill:none;stroke:#ffffff;stroke-linecap:round;"/>
     </g>
     <g id="text_16">
      <!-- 4.0 -->
      <g style="fill:#262626;" transform="translate(7.2 21.017022)scale(0.11 -0.11)">
       <use xlink:href="#DejaVuSans-52"/>
       <use x="63.623047" xlink:href="#DejaVuSans-46"/>
       <use x="95.410156" xlink:href="#DejaVuSans-48"/>
      </g>
     </g>
    </g>
   </g>
   <g id="patch_3">
    <path clip-path="url(#pc502ff8505)" d="M 82.575585 224.64 
L 94.47737 224.64 
L 94.47737 221.841544 
L 82.575585 221.841544 
z
" style="fill:#008000;opacity:0.4;stroke:#ffffff;stroke-linejoin:miter;"/>
   </g>
   <g id="patch_4">
    <path clip-path="url(#pc502ff8505)" d="M 94.47737 224.64 
L 106.379156 224.64 
L 106.379156 224.64 
L 94.47737 224.64 
z
" style="fill:#008000;opacity:0.4;stroke:#ffffff;stroke-linejoin:miter;"/>
   </g>
   <g id="patch_5">
    <path clip-path="url(#pc502ff8505)" d="M 106.379156 224.64 
L 118.280941 224.64 
L 118.280941 224.64 
L 106.379156 224.64 
z
" style="fill:#008000;opacity:0.4;stroke:#ffffff;stroke-linejoin:miter;"/>
   </g>
   <g id="patch_6">
    <path clip-path="url(#pc502ff8505)" d="M 118.280941 224.64 
L 130.182726 224.64 
L 130.182726 219.043089 
L 118.280941 219.043089 
z
" style="fill:#008000;opacity:0.4;stroke:#ffffff;stroke-linejoin:miter;"/>
   </g>
   <g id="patch_7">
    <path clip-path="url(#pc502ff8505)" d="M 130.182726 224.64 
L 142.084511 224.64 
L 142.084511 221.841544 
L 130.182726 221.841544 
z
" style="fill:#008000;opacity:0.4;stroke:#ffffff;stroke-linejoin:miter;"/>
   </g>
   <g id="patch_8">
    <path clip-path="url(#pc502ff8505)" d="M 142.084511 224.64 
L 153.986297 224.64 
L 153.986297 193.856988 
L 142.084511 193.856988 
z
" style="fill:#008000;opacity:0.4;stroke:#ffffff;stroke-linejoin:miter;"/>
   </g>
   <g id="patch_9">
    <path clip-path="url(#pc502ff8505)" d="M 153.986297 224.64 
L 165.888082 224.64 
L 165.888082 171.469344 
L 153.986297 171.469344 
z
" style="fill:#008000;opacity:0.4;stroke:#ffffff;stroke-linejoin:miter;"/>
   </g>
   <g id="patch_10">
    <path clip-path="url(#pc502ff8505)" d="M 165.888082 224.64 
L 177.789867 224.64 
L 177.789867 121.097143 
L 165.888082 121.097143 
z
" style="fill:#008000;opacity:0.4;stroke:#ffffff;stroke-linejoin:miter;"/>
   </g>
   <g id="patch_11">
    <path clip-path="url(#pc502ff8505)" d="M 177.789867 224.64 
L 189.691652 224.64 
L 189.691652 73.523398 
L 177.789867 73.523398 
z
" style="fill:#008000;opacity:0.4;stroke:#ffffff;stroke-linejoin:miter;"/>
   </g>
   <g id="patch_12">
    <path clip-path="url(#pc502ff8505)" d="M 189.691652 224.64 
L 201.593437 224.64 
L 201.593437 90.314131 
L 189.691652 90.314131 
z
" style="fill:#008000;opacity:0.4;stroke:#ffffff;stroke-linejoin:miter;"/>
   </g>
   <g id="patch_13">
    <path clip-path="url(#pc502ff8505)" d="M 201.593437 224.64 
L 213.495223 224.64 
L 213.495223 42.740386 
L 201.593437 42.740386 
z
" style="fill:#008000;opacity:0.4;stroke:#ffffff;stroke-linejoin:miter;"/>
   </g>
   <g id="patch_14">
    <path clip-path="url(#pc502ff8505)" d="M 213.495223 224.64 
L 225.397008 224.64 
L 225.397008 118.298687 
L 213.495223 118.298687 
z
" style="fill:#008000;opacity:0.4;stroke:#ffffff;stroke-linejoin:miter;"/>
   </g>
   <g id="patch_15">
    <path clip-path="url(#pc502ff8505)" d="M 225.397008 224.64 
L 237.298793 224.64 
L 237.298793 17.554286 
L 225.397008 17.554286 
z
" style="fill:#008000;opacity:0.4;stroke:#ffffff;stroke-linejoin:miter;"/>
   </g>
   <g id="patch_16">
    <path clip-path="url(#pc502ff8505)" d="M 237.298793 224.64 
L 249.200578 224.64 
L 249.200578 90.314131 
L 237.298793 90.314131 
z
" style="fill:#008000;opacity:0.4;stroke:#ffffff;stroke-linejoin:miter;"/>
   </g>
   <g id="patch_17">
    <path clip-path="url(#pc502ff8505)" d="M 249.200578 224.64 
L 261.102364 224.64 
L 261.102364 140.686332 
L 249.200578 140.686332 
z
" style="fill:#008000;opacity:0.4;stroke:#ffffff;stroke-linejoin:miter;"/>
   </g>
   <g id="patch_18">
    <path clip-path="url(#pc502ff8505)" d="M 261.102364 224.64 
L 273.004149 224.64 
L 273.004149 160.275521 
L 261.102364 160.275521 
z
" style="fill:#008000;opacity:0.4;stroke:#ffffff;stroke-linejoin:miter;"/>
   </g>
   <g id="patch_19">
    <path clip-path="url(#pc502ff8505)" d="M 273.004149 224.64 
L 284.905934 224.64 
L 284.905934 193.856988 
L 273.004149 193.856988 
z
" style="fill:#008000;opacity:0.4;stroke:#ffffff;stroke-linejoin:miter;"/>
   </g>
   <g id="patch_20">
    <path clip-path="url(#pc502ff8505)" d="M 284.905934 224.64 
L 296.807719 224.64 
L 296.807719 216.244633 
L 284.905934 216.244633 
z
" style="fill:#008000;opacity:0.4;stroke:#ffffff;stroke-linejoin:miter;"/>
   </g>
   <g id="patch_21">
    <path clip-path="url(#pc502ff8505)" d="M 296.807719 224.64 
L 308.709505 224.64 
L 308.709505 210.647722 
L 296.807719 210.647722 
z
" style="fill:#008000;opacity:0.4;stroke:#ffffff;stroke-linejoin:miter;"/>
   </g>
   <g id="patch_22">
    <path clip-path="url(#pc502ff8505)" d="M 308.709505 224.64 
L 320.61129 224.64 
L 320.61129 207.849266 
L 308.709505 207.849266 
z
" style="fill:#008000;opacity:0.4;stroke:#ffffff;stroke-linejoin:miter;"/>
   </g>
   <g id="patch_23">
    <path clip-path="url(#pc502ff8505)" d="M 119.196463 224.64 
L 132.929292 224.64 
L 132.929292 221.032324 
L 119.196463 221.032324 
z
" style="fill:#ff0000;opacity:0.4;stroke:#ffffff;stroke-linejoin:miter;"/>
   </g>
   <g id="patch_24">
    <path clip-path="url(#pc502ff8505)" d="M 132.929292 224.64 
L 146.662121 224.64 
L 146.662121 213.816973 
L 132.929292 213.816973 
z
" style="fill:#ff0000;opacity:0.4;stroke:#ffffff;stroke-linejoin:miter;"/>
   </g>
   <g id="patch_25">
    <path clip-path="url(#pc502ff8505)" d="M 146.662121 224.64 
L 160.39495 224.64 
L 160.39495 166.917189 
L 146.662121 166.917189 
z
" style="fill:#ff0000;opacity:0.4;stroke:#ffffff;stroke-linejoin:miter;"/>
   </g>
   <g id="patch_26">
    <path clip-path="url(#pc502ff8505)" d="M 160.39495 224.64 
L 174.127779 224.64 
L 174.127779 156.094162 
L 160.39495 156.094162 
z
" style="fill:#ff0000;opacity:0.4;stroke:#ffffff;stroke-linejoin:miter;"/>
   </g>
   <g id="patch_27">
    <path clip-path="url(#pc502ff8505)" d="M 174.127779 224.64 
L 187.860608 224.64 
L 187.860608 73.117622 
L 174.127779 73.117622 
z
" style="fill:#ff0000;opacity:0.4;stroke:#ffffff;stroke-linejoin:miter;"/>
   </g>
   <g id="patch_28">
    <path clip-path="url(#pc502ff8505)" d="M 187.860608 224.64 
L 201.593437 224.64 
L 201.593437 98.371351 
L 187.860608 98.371351 
z
" style="fill:#ff0000;opacity:0.4;stroke:#ffffff;stroke-linejoin:miter;"/>
   </g>
   <g id="patch_29">
    <path clip-path="url(#pc502ff8505)" d="M 201.593437 224.64 
L 215.326267 224.64 
L 215.326267 19.002486 
L 201.593437 19.002486 
z
" style="fill:#ff0000;opacity:0.4;stroke:#ffffff;stroke-linejoin:miter;"/>
   </g>
   <g id="patch_30">
    <path clip-path="url(#pc502ff8505)" d="M 215.326267 224.64 
L 229.059096 224.64 
L 229.059096 51.471568 
L 215.326267 51.471568 
z
" style="fill:#ff0000;opacity:0.4;stroke:#ffffff;stroke-linejoin:miter;"/>
   </g>
   <g id="patch_31">
    <path clip-path="url(#pc502ff8505)" d="M 229.059096 224.64 
L 242.791925 224.64 
L 242.791925 98.371351 
L 229.059096 98.371351 
z
" style="fill:#ff0000;opacity:0.4;stroke:#ffffff;stroke-linejoin:miter;"/>
   </g>
   <g id="patch_32">
    <path clip-path="url(#pc502ff8505)" d="M 242.791925 224.64 
L 256.524754 224.64 
L 256.524754 159.701838 
L 242.791925 159.701838 
z
" style="fill:#ff0000;opacity:0.4;stroke:#ffffff;stroke-linejoin:miter;"/>
   </g>
   <g id="patch_33">
    <path clip-path="url(#pc502ff8505)" d="M 256.524754 224.64 
L 270.257583 224.64 
L 270.257583 152.486486 
L 256.524754 152.486486 
z
" style="fill:#ff0000;opacity:0.4;stroke:#ffffff;stroke-linejoin:miter;"/>
   </g>
   <g id="patch_34">
    <path clip-path="url(#pc502ff8505)" d="M 270.257583 224.64 
L 283.990412 224.64 
L 283.990412 174.132541 
L 270.257583 174.132541 
z
" style="fill:#ff0000;opacity:0.4;stroke:#ffffff;stroke-linejoin:miter;"/>
   </g>
   <g id="patch_35">
    <path clip-path="url(#pc502ff8505)" d="M 283.990412 224.64 
L 297.723241 224.64 
L 297.723241 199.38627 
L 283.990412 199.38627 
z
" style="fill:#ff0000;opacity:0.4;stroke:#ffffff;stroke-linejoin:miter;"/>
   </g>
   <g id="patch_36">
    <path clip-path="url(#pc502ff8505)" d="M 297.723241 224.64 
L 311.456071 224.64 
L 311.456071 206.601622 
L 297.723241 206.601622 
z
" style="fill:#ff0000;opacity:0.4;stroke:#ffffff;stroke-linejoin:miter;"/>
   </g>
   <g id="line2d_16">
    <path clip-path="url(#pc502ff8505)" d="M 49.411619 224.612352 
L 58.997876 224.512675 
L 66.187568 224.236096 
L 80.566952 223.462629 
L 85.36008 223.469462 
L 99.739465 223.925408 
L 104.532593 223.732905 
L 109.325721 223.249697 
L 114.118849 222.536319 
L 118.911977 221.65628 
L 123.705105 220.536506 
L 126.101669 219.80021 
L 128.498233 218.872183 
L 130.894798 217.686934 
L 133.291362 216.178484 
L 135.687926 214.285733 
L 138.08449 211.95549 
L 140.481054 209.142734 
L 142.877618 205.808788 
L 145.274182 201.919062 
L 147.670746 197.442284 
L 150.06731 192.352694 
L 152.463874 186.635503 
L 154.860438 180.29446 
L 157.257002 173.359217 
L 159.653566 165.889794 
L 164.446694 149.731674 
L 176.429515 107.842854 
L 178.826079 100.050646 
L 181.222643 92.64368 
L 183.619207 85.707749 
L 186.015771 79.347073 
L 188.412335 73.686844 
L 190.808899 68.867621 
L 193.205463 65.031004 
L 195.602027 62.298154 
L 197.998591 60.74454 
L 200.395155 60.375462 
L 202.79172 61.10725 
L 205.188284 62.758808 
L 207.584848 65.057565 
L 212.377976 70.206053 
L 214.77454 72.347723 
L 217.171104 73.837459 
L 219.567668 74.56958 
L 221.964232 74.616534 
L 226.75736 73.800886 
L 229.153924 73.796195 
L 231.550488 74.666299 
L 233.947052 76.763123 
L 236.343616 80.275689 
L 238.740181 85.200677 
L 241.136745 91.352169 
L 243.533309 98.406273 
L 250.723001 121.135104 
L 253.119565 128.217856 
L 255.516129 134.826081 
L 257.912693 141.001051 
L 262.705821 152.556155 
L 272.292077 175.482198 
L 277.085206 186.639203 
L 279.48177 191.735342 
L 281.878334 196.33212 
L 284.274898 200.3266 
L 286.671462 203.653018 
L 289.068026 206.287733 
L 291.46459 208.250112 
L 293.861154 209.599941 
L 296.257718 210.431819 
L 298.654282 210.866905 
L 301.050846 211.042482 
L 305.843974 211.172523 
L 308.240538 211.372527 
L 310.637102 211.781691 
L 313.033667 212.443852 
L 315.430231 213.362584 
L 317.826795 214.504087 
L 322.619923 217.185175 
L 327.413051 219.851018 
L 329.809615 221.002065 
L 332.206179 221.976717 
L 334.602743 222.762411 
L 336.999307 223.366163 
L 339.395871 223.808801 
L 344.188999 224.325576 
L 348.982128 224.537369 
L 353.775256 224.605203 
L 353.775256 224.605203 
" style="fill:none;stroke:#008000;stroke-linecap:round;stroke-width:1.5;"/>
   </g>
   <g id="line2d_17">
    <path clip-path="url(#pc502ff8505)" d="M 83.092969 224.601089 
L 91.422625 224.5158 
L 97.669868 224.279407 
L 103.91711 223.796985 
L 110.164353 223.00471 
L 114.329181 222.263889 
L 118.494009 221.257857 
L 120.576423 220.601187 
L 122.658837 219.799338 
L 124.741252 218.812699 
L 126.823666 217.597839 
L 128.90608 216.110248 
L 130.988494 214.307537 
L 133.070908 212.152675 
L 135.153322 209.616887 
L 137.235736 206.68183 
L 139.318151 203.340821 
L 141.400565 199.599023 
L 143.482979 195.472666 
L 145.565393 190.987558 
L 147.647807 186.177183 
L 151.812635 175.741475 
L 155.977464 164.519365 
L 168.471949 129.896779 
L 172.636777 119.067723 
L 176.801605 108.764201 
L 185.131262 89.019256 
L 189.29609 79.461029 
L 191.378504 74.920818 
L 193.460918 70.678488 
L 195.543332 66.858353 
L 197.625746 63.582258 
L 199.708161 60.952161 
L 201.790575 59.035312 
L 203.872989 57.855364 
L 205.955403 57.391527 
L 208.037817 57.586056 
L 210.120231 58.358305 
L 212.202645 59.622017 
L 214.28506 61.301753 
L 216.367474 63.344678 
L 218.449888 65.725242 
L 220.532302 68.442233 
L 222.614716 71.509614 
L 224.69713 74.944039 
L 226.779544 78.752521 
L 228.861959 82.923334 
L 230.944373 87.422051 
L 235.109201 97.165741 
L 245.521272 122.5413 
L 249.6861 132.006958 
L 253.850928 140.816507 
L 258.015756 148.932436 
L 262.180585 156.385234 
L 266.345413 163.298086 
L 272.592655 173.082642 
L 278.839898 182.546031 
L 283.004726 188.577215 
L 287.169554 194.14866 
L 291.334383 199.077486 
L 293.416797 201.277229 
L 297.581625 205.183244 
L 301.746453 208.562363 
L 305.911282 211.598162 
L 310.07611 214.414862 
L 314.240938 217.020605 
L 318.405766 219.32455 
L 322.570595 221.210032 
L 324.653009 221.97194 
L 326.735423 222.611112 
L 330.900251 223.547006 
L 335.06508 224.106105 
L 339.229908 224.403627 
L 345.47715 224.576715 
L 347.559564 224.594971 
L 347.559564 224.594971 
" style="fill:none;stroke:#ff0000;stroke-linecap:round;stroke-width:1.5;"/>
   </g>
   <g id="patch_37">
    <path d="M 34.193438 224.64 
L 34.193438 7.2 
" style="fill:none;stroke:#ffffff;stroke-linecap:square;stroke-linejoin:miter;stroke-width:1.25;"/>
   </g>
   <g id="patch_38">
    <path d="M 368.993438 224.64 
L 368.993438 7.2 
" style="fill:none;stroke:#ffffff;stroke-linecap:square;stroke-linejoin:miter;stroke-width:1.25;"/>
   </g>
   <g id="patch_39">
    <path d="M 34.193437 224.64 
L 368.993437 224.64 
" style="fill:none;stroke:#ffffff;stroke-linecap:square;stroke-linejoin:miter;stroke-width:1.25;"/>
   </g>
   <g id="patch_40">
    <path d="M 34.193437 7.2 
L 368.993437 7.2 
" style="fill:none;stroke:#ffffff;stroke-linecap:square;stroke-linejoin:miter;stroke-width:1.25;"/>
   </g>
   <g id="legend_1">
    <g id="patch_41">
     <path d="M 284.235 48.291875 
L 361.293438 48.291875 
Q 363.493438 48.291875 363.493438 46.091875 
L 363.493438 14.9 
Q 363.493438 12.7 361.293438 12.7 
L 284.235 12.7 
Q 282.035 12.7 282.035 14.9 
L 282.035 46.091875 
Q 282.035 48.291875 284.235 48.291875 
z
" style="fill:#eaeaf2;opacity:0.8;stroke:#cccccc;stroke-linejoin:miter;"/>
    </g>
    <g id="patch_42">
     <path d="M 286.435 25.458281 
L 308.435 25.458281 
L 308.435 17.758281 
L 286.435 17.758281 
z
" style="fill:#008000;opacity:0.4;stroke:#ffffff;stroke-linejoin:miter;"/>
    </g>
    <g id="text_17">
     <!-- Brasil -->
     <defs>
      <path d="M 19.671875 34.8125 
L 19.671875 8.109375 
L 35.5 8.109375 
Q 43.453125 8.109375 47.28125 11.40625 
Q 51.125 14.703125 51.125 21.484375 
Q 51.125 28.328125 47.28125 31.5625 
Q 43.453125 34.8125 35.5 34.8125 
z
M 19.671875 64.796875 
L 19.671875 42.828125 
L 34.28125 42.828125 
Q 41.5 42.828125 45.03125 45.53125 
Q 48.578125 48.25 48.578125 53.8125 
Q 48.578125 59.328125 45.03125 62.0625 
Q 41.5 64.796875 34.28125 64.796875 
z
M 9.8125 72.90625 
L 35.015625 72.90625 
Q 46.296875 72.90625 52.390625 68.21875 
Q 58.5 63.53125 58.5 54.890625 
Q 58.5 48.1875 55.375 44.234375 
Q 52.25 40.28125 46.1875 39.3125 
Q 53.46875 37.75 57.5 32.78125 
Q 61.53125 27.828125 61.53125 20.40625 
Q 61.53125 10.640625 54.890625 5.3125 
Q 48.25 0 35.984375 0 
L 9.8125 0 
z
" id="DejaVuSans-66"/>
      <path d="M 41.109375 46.296875 
Q 39.59375 47.171875 37.8125 47.578125 
Q 36.03125 48 33.890625 48 
Q 26.265625 48 22.1875 43.046875 
Q 18.109375 38.09375 18.109375 28.8125 
L 18.109375 0 
L 9.078125 0 
L 9.078125 54.6875 
L 18.109375 54.6875 
L 18.109375 46.1875 
Q 20.953125 51.171875 25.484375 53.578125 
Q 30.03125 56 36.53125 56 
Q 37.453125 56 38.578125 55.875 
Q 39.703125 55.765625 41.0625 55.515625 
z
" id="DejaVuSans-114"/>
      <path d="M 34.28125 27.484375 
Q 23.390625 27.484375 19.1875 25 
Q 14.984375 22.515625 14.984375 16.5 
Q 14.984375 11.71875 18.140625 8.90625 
Q 21.296875 6.109375 26.703125 6.109375 
Q 34.1875 6.109375 38.703125 11.40625 
Q 43.21875 16.703125 43.21875 25.484375 
L 43.21875 27.484375 
z
M 52.203125 31.203125 
L 52.203125 0 
L 43.21875 0 
L 43.21875 8.296875 
Q 40.140625 3.328125 35.546875 0.953125 
Q 30.953125 -1.421875 24.3125 -1.421875 
Q 15.921875 -1.421875 10.953125 3.296875 
Q 6 8.015625 6 15.921875 
Q 6 25.140625 12.171875 29.828125 
Q 18.359375 34.515625 30.609375 34.515625 
L 43.21875 34.515625 
L 43.21875 35.40625 
Q 43.21875 41.609375 39.140625 45 
Q 35.0625 48.390625 27.6875 48.390625 
Q 23 48.390625 18.546875 47.265625 
Q 14.109375 46.140625 10.015625 43.890625 
L 10.015625 52.203125 
Q 14.9375 54.109375 19.578125 55.046875 
Q 24.21875 56 28.609375 56 
Q 40.484375 56 46.34375 49.84375 
Q 52.203125 43.703125 52.203125 31.203125 
z
" id="DejaVuSans-97"/>
      <path d="M 44.28125 53.078125 
L 44.28125 44.578125 
Q 40.484375 46.53125 36.375 47.5 
Q 32.28125 48.484375 27.875 48.484375 
Q 21.1875 48.484375 17.84375 46.4375 
Q 14.5 44.390625 14.5 40.28125 
Q 14.5 37.15625 16.890625 35.375 
Q 19.28125 33.59375 26.515625 31.984375 
L 29.59375 31.296875 
Q 39.15625 29.25 43.1875 25.515625 
Q 47.21875 21.78125 47.21875 15.09375 
Q 47.21875 7.46875 41.1875 3.015625 
Q 35.15625 -1.421875 24.609375 -1.421875 
Q 20.21875 -1.421875 15.453125 -0.5625 
Q 10.6875 0.296875 5.421875 2 
L 5.421875 11.28125 
Q 10.40625 8.6875 15.234375 7.390625 
Q 20.0625 6.109375 24.8125 6.109375 
Q 31.15625 6.109375 34.5625 8.28125 
Q 37.984375 10.453125 37.984375 14.40625 
Q 37.984375 18.0625 35.515625 20.015625 
Q 33.0625 21.96875 24.703125 23.78125 
L 21.578125 24.515625 
Q 13.234375 26.265625 9.515625 29.90625 
Q 5.8125 33.546875 5.8125 39.890625 
Q 5.8125 47.609375 11.28125 51.796875 
Q 16.75 56 26.8125 56 
Q 31.78125 56 36.171875 55.265625 
Q 40.578125 54.546875 44.28125 53.078125 
z
" id="DejaVuSans-115"/>
      <path d="M 9.421875 75.984375 
L 18.40625 75.984375 
L 18.40625 0 
L 9.421875 0 
z
" id="DejaVuSans-108"/>
     </defs>
     <g style="fill:#262626;" transform="translate(317.235 25.458281)scale(0.11 -0.11)">
      <use xlink:href="#DejaVuSans-66"/>
      <use x="68.603516" xlink:href="#DejaVuSans-114"/>
      <use x="109.716797" xlink:href="#DejaVuSans-97"/>
      <use x="170.996094" xlink:href="#DejaVuSans-115"/>
      <use x="223.095703" xlink:href="#DejaVuSans-105"/>
      <use x="250.878906" xlink:href="#DejaVuSans-108"/>
     </g>
    </g>
    <g id="patch_43">
     <path d="M 286.435 41.604219 
L 308.435 41.604219 
L 308.435 33.904219 
L 286.435 33.904219 
z
" style="fill:#ff0000;opacity:0.4;stroke:#ffffff;stroke-linejoin:miter;"/>
    </g>
    <g id="text_18">
     <!-- Canada -->
     <defs>
      <path d="M 64.40625 67.28125 
L 64.40625 56.890625 
Q 59.421875 61.53125 53.78125 63.8125 
Q 48.140625 66.109375 41.796875 66.109375 
Q 29.296875 66.109375 22.65625 58.46875 
Q 16.015625 50.828125 16.015625 36.375 
Q 16.015625 21.96875 22.65625 14.328125 
Q 29.296875 6.6875 41.796875 6.6875 
Q 48.140625 6.6875 53.78125 8.984375 
Q 59.421875 11.28125 64.40625 15.921875 
L 64.40625 5.609375 
Q 59.234375 2.09375 53.4375 0.328125 
Q 47.65625 -1.421875 41.21875 -1.421875 
Q 24.65625 -1.421875 15.125 8.703125 
Q 5.609375 18.84375 5.609375 36.375 
Q 5.609375 53.953125 15.125 64.078125 
Q 24.65625 74.21875 41.21875 74.21875 
Q 47.75 74.21875 53.53125 72.484375 
Q 59.328125 70.75 64.40625 67.28125 
z
" id="DejaVuSans-67"/>
      <path d="M 54.890625 33.015625 
L 54.890625 0 
L 45.90625 0 
L 45.90625 32.71875 
Q 45.90625 40.484375 42.875 44.328125 
Q 39.84375 48.1875 33.796875 48.1875 
Q 26.515625 48.1875 22.3125 43.546875 
Q 18.109375 38.921875 18.109375 30.90625 
L 18.109375 0 
L 9.078125 0 
L 9.078125 54.6875 
L 18.109375 54.6875 
L 18.109375 46.1875 
Q 21.34375 51.125 25.703125 53.5625 
Q 30.078125 56 35.796875 56 
Q 45.21875 56 50.046875 50.171875 
Q 54.890625 44.34375 54.890625 33.015625 
z
" id="DejaVuSans-110"/>
      <path d="M 45.40625 46.390625 
L 45.40625 75.984375 
L 54.390625 75.984375 
L 54.390625 0 
L 45.40625 0 
L 45.40625 8.203125 
Q 42.578125 3.328125 38.25 0.953125 
Q 33.9375 -1.421875 27.875 -1.421875 
Q 17.96875 -1.421875 11.734375 6.484375 
Q 5.515625 14.40625 5.515625 27.296875 
Q 5.515625 40.1875 11.734375 48.09375 
Q 17.96875 56 27.875 56 
Q 33.9375 56 38.25 53.625 
Q 42.578125 51.265625 45.40625 46.390625 
z
M 14.796875 27.296875 
Q 14.796875 17.390625 18.875 11.75 
Q 22.953125 6.109375 30.078125 6.109375 
Q 37.203125 6.109375 41.296875 11.75 
Q 45.40625 17.390625 45.40625 27.296875 
Q 45.40625 37.203125 41.296875 42.84375 
Q 37.203125 48.484375 30.078125 48.484375 
Q 22.953125 48.484375 18.875 42.84375 
Q 14.796875 37.203125 14.796875 27.296875 
z
" id="DejaVuSans-100"/>
     </defs>
     <g style="fill:#262626;" transform="translate(317.235 41.604219)scale(0.11 -0.11)">
      <use xlink:href="#DejaVuSans-67"/>
      <use x="69.824219" xlink:href="#DejaVuSans-97"/>
      <use x="131.103516" xlink:href="#DejaVuSans-110"/>
      <use x="194.482422" xlink:href="#DejaVuSans-97"/>
      <use x="255.761719" xlink:href="#DejaVuSans-100"/>
      <use x="319.238281" xlink:href="#DejaVuSans-97"/>
     </g>
    </g>
   </g>
  </g>
 </g>
 <defs>
  <clipPath id="pc502ff8505">
   <rect height="217.44" width="334.8" x="34.193438" y="7.2"/>
  </clipPath>
 </defs>
</svg>
